<!-- Generated by IcoMoon.io -->
<svg version="1.1" xmlns="http://www.w3.org/2000/svg" width="32" height="32" viewBox="0 0 32 32">
<title>inbox-icon</title>
<path fill="#5297ff" opacity="0.1" d="M13.333 19.333c0 1.473 1.194 2.667 2.667 2.667s2.667-1.194 2.667-2.667v0h7.333v4.667c0 1.105-0.895 2-2 2v0h-16c-1.105 0-2-0.895-2-2v0-4.667h7.333z"></path>
<path fill="#5297ff" d="M10.749 5.333h10.501c1.243 0 2.287 0.851 2.583 2.002l0.004 0.018 2.749 10.995c0.051 0.194 0.080 0.417 0.080 0.647v5.005c0 1.473-1.194 2.667-2.667 2.667v0h-16c-1.473 0-2.667-1.194-2.667-2.667v0-5.005c0-0.23 0.029-0.453 0.084-0.665l-0.004 0.018 2.747-10.995c0.3-1.169 1.344-2.020 2.587-2.020 0 0 0.001 0 0.001 0h-0zM10.749 6.667c-0.621 0-1.143 0.425-1.291 1l-0.002 0.009-2.749 10.996c-0.025 0.097-0.040 0.208-0.040 0.323v5.005c0 0.736 0.597 1.333 1.333 1.333v0h16c0.736 0 1.333-0.597 1.333-1.333v0-5.005c-0-0.115-0.015-0.226-0.042-0.332l0.002 0.009-2.747-10.996c-0.15-0.584-0.672-1.009-1.293-1.009h-10.505zM16 23c-0 0-0.001 0-0.001 0-1.789 0-3.279-1.282-3.602-2.977l-0.004-0.023h-3.060c-0.368 0-0.667-0.298-0.667-0.667s0.298-0.667 0.667-0.667v0h3.667c0.368 0 0.667 0.298 0.667 0.667v0c0 1.289 1.045 2.333 2.333 2.333s2.333-1.045 2.333-2.333v0c0-0.368 0.298-0.667 0.667-0.667v0h3.667c0.368 0 0.667 0.298 0.667 0.667s-0.298 0.667-0.667 0.667v0h-3.060c-0.326 1.718-1.816 3-3.606 3-0 0-0.001 0-0.001 0h0z"></path>
</svg>
