<!-- Generated by IcoMoon.io -->
<svg version="1.1" xmlns="http://www.w3.org/2000/svg" width="32" height="32" viewBox="0 0 32 32">
<title>upcoming-icon</title>
<path fill="#a970ff" opacity="0.1" d="M8 6h16c1.105 0 2 0.895 2 2v0 3.333h-20v-3.333c0-1.105 0.895-2 2-2v0z"></path>
<path fill="#a970ff" d="M8 5.333h16c1.473 0 2.667 1.194 2.667 2.667v0 16c0 1.473-1.194 2.667-2.667 2.667v0h-16c-1.473 0-2.667-1.194-2.667-2.667v0-16c0-1.473 1.194-2.667 2.667-2.667v0zM8 6.667c-0.736 0-1.333 0.597-1.333 1.333v0 16c0 0.736 0.597 1.333 1.333 1.333v0h16c0.736 0 1.333-0.597 1.333-1.333v0-16c0-0.736-0.597-1.333-1.333-1.333v0h-16zM21.333 22.667c-0.736 0-1.333-0.597-1.333-1.333s0.597-1.333 1.333-1.333v0c0.736 0 1.333 0.597 1.333 1.333s-0.597 1.333-1.333 1.333v0zM16 22.667c-0.736 0-1.333-0.597-1.333-1.333s0.597-1.333 1.333-1.333v0c0.736 0 1.333 0.597 1.333 1.333s-0.597 1.333-1.333 1.333v0zM10.667 22.667c-0.736 0-1.333-0.597-1.333-1.333s0.597-1.333 1.333-1.333v0c0.736 0 1.333 0.597 1.333 1.333s-0.597 1.333-1.333 1.333v0zM21.333 17.333c-0.736 0-1.333-0.597-1.333-1.333s0.597-1.333 1.333-1.333v0c0.736 0 1.333 0.597 1.333 1.333s-0.597 1.333-1.333 1.333v0zM16 17.333c-0.736 0-1.333-0.597-1.333-1.333s0.597-1.333 1.333-1.333v0c0.736 0 1.333 0.597 1.333 1.333s-0.597 1.333-1.333 1.333v0zM10.667 17.333c-0.736 0-1.333-0.597-1.333-1.333s0.597-1.333 1.333-1.333v0c0.736 0 1.333 0.597 1.333 1.333s-0.597 1.333-1.333 1.333v0zM9.333 10.667h13.333c0.368 0 0.667 0.298 0.667 0.667s-0.298 0.667-0.667 0.667v0h-13.333c-0.368 0-0.667-0.298-0.667-0.667s0.298-0.667 0.667-0.667v0z"></path>
</svg>
